<svg xmlns="http://www.w3.org/2000/svg" width="25" height="24" viewBox="0 0 25 24" fill="none">
  <path d="M12.6296 12.0001C12.6296 9.79106 14.4204 8.00018 16.6295 8.00018C18.8386 8.00018 20.6295 9.79106 20.6295 12.0001C20.6295 14.2093 18.8386 16.0001 16.6295 16.0001C14.4204 16.0001 12.6296 14.2093 12.6296 12.0001Z" fill="#1ABCFE"/>
  <path d="M4.62962 20C4.62962 17.791 6.42046 16.0001 8.62957 16.0001H12.6295V20C12.6295 22.2092 10.8387 24 8.62957 24C6.42046 24 4.62962 22.2092 4.62962 20Z" fill="#0ACF83"/>
  <path d="M12.6296 0.000267469V8.00016L16.6295 8.00018C18.8387 8.00018 20.6295 6.20933 20.6295 4.00022C20.6295 1.79111 18.8387 0.000267469 16.6295 0.000267469H12.6296Z" fill="#FF7262"/>
  <path d="M4.62939 3.99996C4.62939 6.20907 6.42023 7.99989 8.62935 7.99989L12.6296 8.00016V0.000267469L8.62935 0C6.42023 0 4.62939 1.79084 4.62939 3.99996Z" fill="#F24E1E"/>
  <path d="M4.62962 12.0001C4.62962 14.2093 6.42046 16.0001 8.62957 16.0001H12.6295L12.6296 8.00016L8.62935 7.99989C6.42023 7.99989 4.62962 9.79106 4.62962 12.0001Z" fill="#A259FF"/>
</svg>