<svg xmlns="http://www.w3.org/2000/svg" fill="none" viewBox="0 0 12 12">
  <path fill="#61DAFB" d="M12.0006 6.0012c0-.773-.9955-1.5056-2.5219-1.9599.3522-1.5127.1957-2.7162-.4941-3.1015-.159-.0904-.345-.1332-.548-.1332v.5304c.1126 0 .203.0214.279.0618.3326.1855.4769.892.3644 1.8005-.027.2236-.071.459-.1248.6993-.4794-.1142-1.0029-.2022-1.5532-.2593-.3303-.44-.6727-.8396-1.0176-1.1892.7974-.7207 1.546-1.1155 2.0547-1.1155V.8042c-.6727 0-1.5533.4662-2.4437 1.2749C5.105 1.275 4.2244.8137 3.5518.8137v.5304c.5063 0 1.2573.3925 2.0547 1.1084a11.311 11.311 0 0 0-1.0102 1.1868c-.5529.0571-1.0763.1451-1.5558.2617a6.9983 6.9983 0 0 1-.1272-.6898c-.115-.9086.027-1.615.3572-1.8029.0733-.0428.1687-.0618.2813-.0618V.816c-.2055 0-.3914.0428-.5529.1332-.6873.3853-.8414 1.5864-.4867 3.0944C.9907 4.5004 0 5.2306 0 6.0012c0 .773.9956 1.5056 2.522 1.9599-.3523 1.5127-.1957 2.7162.494 3.1015.159.0904.345.1332.5504.1332.6727 0 1.5533-.4662 2.4437-1.2749.8904.804 1.771 1.2654 2.4437 1.2654.2055 0 .3914-.0428.5528-.1332.6874-.3853.8415-1.5865.4868-3.0944 1.5166-.4543 2.5072-1.1869 2.5072-1.9575ZM8.8158 4.4147c-.0905.3069-.203.6232-.3302.9395a11.1606 11.1606 0 0 0-.3205-.5708c-.1125-.1903-.2324-.3758-.3522-.5566.3473.05.6825.1118 1.0029.188ZM7.6955 6.9478c-.1908.3211-.3865.6256-.5895.9086-.3645.031-.7339.0476-1.1057.0476-.3693 0-.7387-.0167-1.1007-.0452a13.0684 13.0684 0 0 1-.592-.9038 12.2667 12.2667 0 0 1-.5088-.9467c.1517-.3187.323-.6374.5064-.949.1908-.321.3864-.6255.5895-.9086a13.0936 13.0936 0 0 1 1.1056-.0475c.3694 0 .7387.0166 1.1008.0451.203.283.4011.5852.592.9039a12.31 12.31 0 0 1 .5087.9466 13.1902 13.1902 0 0 1-.5063.949Zm.79-.3092c.1322.3187.2447.6375.3376.9467a11.258 11.258 0 0 1-1.0078.1902c.1199-.1831.2398-.371.3523-.5637.1125-.1902.2177-.3829.318-.5732ZM6.0053 9.1765a9.897 9.897 0 0 1-.68-.7612c.2201.0096.4452.0167.6727.0167.23 0 .4574-.0048.68-.0167a9.3614 9.3614 0 0 1-.6727.7612Zm-1.8199-1.401c-.3473-.05-.6825-.1117-1.0029-.1879.0905-.3068.203-.6231.3302-.9395.1003.1903.2055.3806.3205.5709.115.1902.2323.3758.3522.5565ZM5.993 2.826a9.891 9.891 0 0 1 .68.7611 15.5622 15.5622 0 0 0-.6727-.0166c-.23 0-.4574.0047-.68.0166a9.3616 9.3616 0 0 1 .6727-.761ZM4.1829 4.227c-.1199.183-.2398.371-.3523.5636a13.3229 13.3229 0 0 0-.318.5709 10.0037 10.0037 0 0 1-.3375-.9467 12.183 12.183 0 0 1 1.0078-.1879ZM1.969 7.2046c-.8659-.3591-1.426-.83-1.426-1.2035 0-.3734.5601-.8468 1.426-1.2035.2104-.088.4403-.1665.6776-.2402.1394.4661.3229.9513.5504 1.4485-.225.4947-.406.9775-.543 1.4413a7.5694 7.5694 0 0 1-.685-.2426Zm1.316 3.3989c-.3326-.1856-.477-.892-.3644-1.8006.0269-.2235.0709-.459.1247-.6992.4794.1141 1.003.2021 1.5533.2592.3302.44.6727.8396 1.0176 1.1893-.7974.7206-1.546 1.1155-2.0548 1.1155-.11-.0024-.203-.0238-.2764-.0642ZM9.0872 8.791c.115.9086-.0269 1.615-.3571 1.8029-.0734.0429-.1688.0619-.2813.0619-.5064 0-1.2573-.3925-2.0548-1.1084a11.311 11.311 0 0 0 1.0103-1.1868c.5528-.0571 1.0763-.1451 1.5557-.2617.0563.2402.1003.471.1272.6921Zm.9418-1.5864c-.2104.088-.4403.1665-.6776.2402-.1394-.4661-.3229-.9514-.5504-1.4485.225-.4947.406-.9775.543-1.4413.2422.0737.4722.1546.6874.2426.8659.3591 1.4261.83 1.4261 1.2035-.0024.3734-.5626.8467-1.4285 1.2035Z" />
  <path fill="#61DAFB" d="M5.9974 7.0888c.6173 0 1.1176-.4865 1.1176-1.0866 0-.6002-.5004-1.0867-1.1176-1.0867S4.88 5.402 4.88 6.0022c0 .6001.5003 1.0866 1.1175 1.0866Z" />
</svg>