<svg width="16" height="16" viewBox="0 0 16 16" fill="none" xmlns="http://www.w3.org/2000/svg">
<path d="M8 3.1875C5.86669 3.1875 4.53331 4.25419 4 6.3875C4.8 5.32081 5.73331 4.92081 6.8 5.1875C7.40856 5.33962 7.84356 5.78119 8.32506 6.26988C9.10944 7.06606 10.0172 7.9875 12 7.9875C14.1333 7.9875 15.4667 6.92081 16 4.7875C15.2 5.85419 14.2667 6.25419 13.2 5.9875C12.5914 5.83537 12.1564 5.39381 11.6749 4.90513C10.8906 4.10894 9.98281 3.1875 8 3.1875ZM4 7.9875C1.86669 7.9875 0.533312 9.05419 0 11.1875C0.8 10.1208 1.73331 9.72081 2.8 9.9875C3.40856 10.1396 3.84356 10.5812 4.32506 11.0699C5.10944 11.8661 6.01719 12.7875 8 12.7875C10.1333 12.7875 11.4667 11.7208 12 9.5875C11.2 10.6542 10.2667 11.0542 9.2 10.7875C8.59144 10.6354 8.15644 10.1938 7.67494 9.70512C6.89056 8.90894 5.98281 7.9875 4 7.9875Z" fill="#38BDF8"/>
</svg>
