<svg width="25" height="24" viewBox="0 0 25 24" fill="none" xmlns="http://www.w3.org/2000/svg">
<mask id="mask0_7188_278" style="mask-type:alpha" maskUnits="userSpaceOnUse" x="0" y="0" width="25" height="24">
<path fill-rule="evenodd" clip-rule="evenodd" d="M17.6454 23.7742C18.0234 23.9215 18.4544 23.912 18.8359 23.7284L23.7771 21.3508C24.2963 21.101 24.6265 20.5755 24.6265 19.999V3.8773C24.6265 3.30082 24.2964 2.77534 23.7771 2.5255L18.8359 0.147812C18.3352 -0.0931208 17.7492 -0.0341074 17.3098 0.285378C17.247 0.331017 17.1872 0.381973 17.1311 0.438129L7.67175 9.06807L3.55145 5.94041C3.16789 5.64927 2.6314 5.67313 2.27517 5.99717L0.953653 7.19929C0.517913 7.59565 0.517414 8.28116 0.952573 8.67819L4.52583 11.9381L0.952573 15.1981C0.517414 15.5951 0.517913 16.2806 0.953653 16.677L2.27517 17.8791C2.6314 18.2031 3.16789 18.227 3.55145 17.9358L7.67175 14.8082L17.1311 23.4381C17.2807 23.5879 17.4564 23.7006 17.6454 23.7742ZM18.6302 6.48985L11.4527 11.9381L18.6302 17.3864V6.48985Z" fill="white"/>
</mask>
<g mask="url(#mask0_7188_278)">
<path d="M23.772 2.53317L18.8293 0.153343C18.2571 -0.122121 17.5734 -0.00592426 17.1244 0.443075L0.943767 15.196C0.508549 15.5928 0.509049 16.278 0.944847 16.6742L2.26653 17.8757C2.62281 18.1996 3.15938 18.2235 3.54298 17.9325L23.0282 3.15056C23.6819 2.65465 24.6208 3.12089 24.6208 3.94142V3.88404C24.6208 3.30807 24.2909 2.78303 23.772 2.53317Z" fill="#0065A9"/>
<g filter="url(#filter0_d_7188_278)">
<path d="M23.772 21.3423L18.8293 23.7221C18.2571 23.9976 17.5734 23.8814 17.1244 23.4324L0.943767 8.67943C0.508549 8.28261 0.509049 7.5974 0.944847 7.20123L2.26653 5.99969C2.62281 5.6758 3.15938 5.65195 3.54298 5.94296L23.0282 20.7249C23.6819 21.2208 24.6208 20.7545 24.6208 19.934V19.9914C24.6208 20.5674 24.2909 21.0924 23.772 21.3423Z" fill="#007ACC"/>
</g>
<g filter="url(#filter1_d_7188_278)">
<path d="M18.8295 23.7225C18.2572 23.9979 17.5734 23.8814 17.1244 23.4324C17.6777 23.9856 18.6237 23.5938 18.6237 22.8113V1.06432C18.6237 0.281873 17.6777 -0.10998 17.1244 0.443292C17.5734 -0.00574739 18.2572 -0.122108 18.8295 0.153112L23.7713 2.52968C24.2906 2.7794 24.6208 3.30463 24.6208 3.88084V19.9949C24.6208 20.5711 24.2906 21.0963 23.7713 21.3461L18.8295 23.7225Z" fill="#1F9CF0"/>
</g>
<g style="mix-blend-mode:overlay" opacity="0.25">
<path fill-rule="evenodd" clip-rule="evenodd" d="M17.6284 23.7683C18.0063 23.9155 18.4371 23.906 18.8184 23.7225L23.7572 21.3461C24.2762 21.0963 24.6063 20.5711 24.6063 19.9949V3.88084C24.6063 3.30461 24.2762 2.77938 23.7573 2.52966L18.8184 0.153113C18.318 -0.0877052 17.7322 -0.0287199 17.293 0.290612C17.2302 0.336231 17.1705 0.387163 17.1144 0.443292L7.65954 9.06912L3.54121 5.94297C3.15785 5.65194 2.62159 5.67581 2.26553 5.99968L0.944648 7.20122C0.509115 7.59742 0.508616 8.2826 0.943568 8.67942L4.51512 11.9378L0.943568 15.1962C0.508616 15.5931 0.509115 16.2782 0.944648 16.6744L2.26553 17.8759C2.62159 18.1998 3.15785 18.2237 3.54121 17.9327L7.65954 14.8065L17.1144 23.4324C17.2639 23.582 17.4396 23.6947 17.6284 23.7683ZM18.6128 6.49214L11.4387 11.9378L18.6128 17.3835V6.49214Z" fill="url(#paint0_linear_7188_278)"/>
</g>
</g>
<defs>
<filter id="filter0_d_7188_278" x="-0.715024" y="4.40705" width="26.6686" height="20.7958" filterUnits="userSpaceOnUse" color-interpolation-filters="sRGB">
<feFlood flood-opacity="0" result="BackgroundImageFix"/>
<feColorMatrix in="SourceAlpha" type="matrix" values="0 0 0 0 0 0 0 0 0 0 0 0 0 0 0 0 0 0 127 0" result="hardAlpha"/>
<feOffset/>
<feGaussianBlur stdDeviation="0.66635"/>
<feColorMatrix type="matrix" values="0 0 0 0 0 0 0 0 0 0 0 0 0 0 0 0 0 0 0.25 0"/>
<feBlend mode="overlay" in2="BackgroundImageFix" result="effect1_dropShadow_7188_278"/>
<feBlend mode="normal" in="SourceGraphic" in2="effect1_dropShadow_7188_278" result="shape"/>
</filter>
<filter id="filter1_d_7188_278" x="15.7917" y="-1.32733" width="10.1619" height="26.5301" filterUnits="userSpaceOnUse" color-interpolation-filters="sRGB">
<feFlood flood-opacity="0" result="BackgroundImageFix"/>
<feColorMatrix in="SourceAlpha" type="matrix" values="0 0 0 0 0 0 0 0 0 0 0 0 0 0 0 0 0 0 127 0" result="hardAlpha"/>
<feOffset/>
<feGaussianBlur stdDeviation="0.66635"/>
<feColorMatrix type="matrix" values="0 0 0 0 0 0 0 0 0 0 0 0 0 0 0 0 0 0 0.25 0"/>
<feBlend mode="overlay" in2="BackgroundImageFix" result="effect1_dropShadow_7188_278"/>
<feBlend mode="normal" in="SourceGraphic" in2="effect1_dropShadow_7188_278" result="shape"/>
</filter>
<linearGradient id="paint0_linear_7188_278" x1="12.612" y1="0.00537096" x2="12.612" y2="23.8703" gradientUnits="userSpaceOnUse">
<stop stop-color="white"/>
<stop offset="1" stop-color="white" stop-opacity="0"/>
</linearGradient>
</defs>
</svg>
