<svg xmlns="http://www.w3.org/2000/svg" width="25" height="24" viewBox="0 0 25 24" fill="none">
  <g clip-path="url(#clip0_6921_6228)">
    <path d="M20.6426 0.00146484H4.61328C2.41304 0.00146484 0.629395 1.82792 0.629395 4.08097V19.8806C0.629395 22.1337 2.41304 23.9601 4.61328 23.9601H20.6426C22.8428 23.9601 24.6265 22.1337 24.6265 19.8806V4.08097C24.6265 1.82792 22.8428 0.00146484 20.6426 0.00146484Z" fill="#470137"/>
    <path d="M13.2445 6.72397L10.2503 11.7848L13.4538 17.1587C13.4744 17.1963 13.4801 17.2404 13.4699 17.2823C13.4649 17.3002 13.4542 17.3046 13.4378 17.3052L13.4196 17.305L13.3975 17.3044C13.3855 17.3044 13.3721 17.305 13.3572 17.3074H11.0475L11.0021 17.3067C10.8776 17.3033 10.7879 17.2851 10.7333 17.1916C10.5196 16.7653 10.3049 16.3394 10.0893 15.9141C9.89644 15.5347 9.69832 15.1582 9.495 14.7846L9.4052 14.6201C9.16202 14.1775 8.92322 13.7324 8.68885 13.2849H8.67272C8.45628 13.7277 8.23357 14.1673 8.00465 14.6036C7.77377 15.0432 7.54571 15.4801 7.32045 15.9141C7.09507 16.3484 6.86433 16.7798 6.62829 17.2081C6.59032 17.2955 6.52724 17.3137 6.4394 17.3167L6.40285 17.3172H4.19746L4.1879 17.3175L4.1564 17.3204C4.13887 17.3215 4.12837 17.3176 4.125 17.2906C4.11895 17.2504 4.12756 17.2093 4.14918 17.1752L7.25605 11.9496L4.22961 6.70766C4.19746 6.66389 4.19212 6.62818 4.21349 6.60053C4.22537 6.58645 4.24028 6.57539 4.25706 6.56823C4.27383 6.56106 4.292 6.55799 4.31013 6.55926H6.57992C6.62942 6.55648 6.6789 6.56494 6.72484 6.58402C6.76327 6.60639 6.79636 6.63739 6.82139 6.67473C7.01458 7.11436 7.22925 7.55398 7.46537 7.99342C7.69967 8.43008 7.93846 8.8642 8.18172 9.29569C8.42125 9.7205 8.64412 10.1549 8.8498 10.598H8.86592C9.0767 10.155 9.29404 9.71543 9.51787 9.27928C9.73769 8.85069 9.96313 8.41922 10.1939 7.98516C10.4218 7.55667 10.6445 7.12533 10.862 6.69124C10.8744 6.65054 10.8965 6.61368 10.9264 6.58402C10.9662 6.56341 11.0108 6.55482 11.0552 6.55926H13.164C13.1834 6.55431 13.2038 6.55594 13.2222 6.56391C13.2407 6.57187 13.256 6.58574 13.2661 6.60343C13.2761 6.62112 13.2803 6.64167 13.2779 6.66199C13.2756 6.68231 13.2669 6.7013 13.2531 6.7161L13.2445 6.72397ZM17.9755 17.5201L17.8645 17.5213C17.1236 17.5329 16.3894 17.3752 15.7154 17.0598C15.0875 16.7622 14.5627 16.2765 14.2102 15.6668C13.8549 15.0625 13.6725 14.3094 13.6633 13.4077L13.6629 13.3343C13.6569 12.5777 13.8457 11.8329 14.2103 11.1749C14.5753 10.5236 15.1073 9.98692 15.7488 9.62311L15.804 9.59239C16.5014 9.19673 17.3439 8.9989 18.3314 8.9989L18.3745 8.99938L18.4238 9.00101L18.4791 9.0035L18.5406 9.00715L18.6439 9.01464L18.7609 9.02424L18.8465 9.03192V5.78444C18.8465 5.70765 18.8787 5.66906 18.943 5.66906H20.9714C20.9845 5.66714 20.9979 5.66837 21.0105 5.67265C21.023 5.67694 21.0345 5.68417 21.0438 5.69376C21.0532 5.70336 21.0603 5.71505 21.0645 5.72793C21.0686 5.7408 21.0698 5.7545 21.068 5.76793V15.5103C21.068 15.6738 21.0741 15.8501 21.0865 16.0386L21.1165 16.4662L21.1325 16.7136C21.1344 16.7478 21.1263 16.7819 21.109 16.8113C21.0918 16.8407 21.0663 16.8642 21.0358 16.8785C20.5125 17.1019 19.9675 17.2677 19.4099 17.3729C18.9366 17.4624 18.4568 17.5116 17.9755 17.5201ZM18.8465 15.4772V10.977C18.7595 10.9529 18.6706 10.9364 18.5809 10.9276C18.4712 10.9163 18.3611 10.9108 18.2508 10.9111C17.8602 10.9071 17.4742 10.9975 17.124 11.1749C16.7829 11.3485 16.4917 11.6097 16.2789 11.9332C16.0664 12.2515 15.9564 12.6671 15.9492 13.18L15.9488 13.2354C15.941 13.5947 15.9983 13.9524 16.1178 14.2903C16.2151 14.5627 16.369 14.8102 16.5687 15.0157C16.7598 15.2048 16.9913 15.3459 17.2447 15.4278C17.5125 15.5166 17.7923 15.5611 18.0738 15.5598C18.2239 15.5598 18.3634 15.5542 18.4923 15.5432C18.5951 15.5353 18.697 15.5179 18.7968 15.4914L18.8465 15.4772Z" fill="#FF61F6"/>
  </g>
  <defs>
    <clipPath id="clip0_6921_6228">
      <rect width="23.9971" height="23.9971" fill="white" transform="translate(0.629395 0.00146484)"/>
    </clipPath>
  </defs>
</svg>